<?xml version="1.0" encoding="UTF-8" standalone="no"?>
<!-- Created with Inkscape (http://www.inkscape.org/) -->
<!-- Author: mako yass -->

<svg
   xmlns:dc="http://purl.org/dc/elements/1.1/"
   xmlns:cc="http://creativecommons.org/ns#"
   xmlns:rdf="http://www.w3.org/1999/02/22-rdf-syntax-ns#"
   xmlns:svg="http://www.w3.org/2000/svg"
   xmlns="http://www.w3.org/2000/svg"
   xmlns:sodipodi="http://sodipodi.sourceforge.net/DTD/sodipodi-0.dtd"
   xmlns:inkscape="http://www.inkscape.org/namespaces/inkscape"
   width="117.77778"
   height="117.77778"
   id="svg4714"
   version="1.1"
   inkscape:version="0.48.3.1 r9886"
   sodipodi:docname="New document 13">
  <defs
     id="defs4716" />
  <sodipodi:namedview
     id="base"
     pagecolor="#ffffff"
     bordercolor="#666666"
     borderopacity="1.0"
     inkscape:pageopacity="0.0"
     inkscape:pageshadow="2"
     inkscape:zoom="1.18125"
     inkscape:cx="52.369195"
     inkscape:cy="50.887715"
     inkscape:document-units="px"
     inkscape:current-layer="layer1"
     showgrid="false"
     fit-margin-top="0"
     fit-margin-left="0"
     fit-margin-right="0"
     fit-margin-bottom="0"
     inkscape:window-width="726"
     inkscape:window-height="335"
     inkscape:window-x="402"
     inkscape:window-y="14"
     inkscape:window-maximized="0" />
  <metadata
     id="metadata4719">
    <rdf:RDF>
      <cc:Work
         rdf:about="">
        <dc:format>image/svg+xml</dc:format>
        <dc:type
           rdf:resource="http://purl.org/dc/dcmitype/StillImage" />
        <dc:title></dc:title>
      </cc:Work>
    </rdf:RDF>
  </metadata>
  <g
     inkscape:label="Layer 1"
     inkscape:groupmode="layer"
     id="layer1"
     transform="translate(-406.8254,-550.61615)">
    <path
       style="color:#000000;fill:#fe0000;fill-opacity:0.00392157;fill-rule:evenodd;stroke:none;stroke-width:1.70000005;marker:none;visibility:visible;display:inline;overflow:visible;enable-background:accumulate"
       d="m 465.71429,560.45465 c -4.39936,0 -8.79216,1.6763 -12.16318,5.0473 -6.74202,6.7421 -6.74202,17.5844 0,24.3264 l 31.81458,31.8559 c 6.74202,6.7421 17.58433,6.7421 24.32636,0 6.74202,-6.742 6.74202,-17.6257 0,-24.3677 l -31.81458,-31.8146 c -3.37102,-3.371 -7.76382,-5.0473 -12.16318,-5.0473 z m -31.81458,31.8146 c -4.39935,0 -8.79216,1.6763 -12.16318,5.0473 -6.74202,6.742 -6.74202,17.6257 0,24.3677 l 31.81458,31.81461 c 6.74202,6.742 17.58434,6.742 24.32636,0 6.74202,-6.74201 6.74202,-17.58431 0,-24.32631 l -31.81458,-31.856 c -3.37101,-3.371 -7.76382,-5.0473 -12.16318,-5.0473 z"
       id="rect4256-9"
       inkscape:connector-curvature="0" />
    <path
       sodipodi:type="arc"
       style="color:#000000;fill:#ffffff;fill-opacity:1;fill-rule:evenodd;stroke:none;stroke-width:1.70000005;marker:none;visibility:visible;display:inline;overflow:visible;enable-background:accumulate"
       id="path4245-5"
       sodipodi:cx="580"
       sodipodi:cy="944.36218"
       sodipodi:rx="58"
       sodipodi:ry="58"
       d="m 638,944.36218 c 0,32.03252 -25.96748,58.00002 -58,58.00002 -32.03252,0 -58,-25.9675 -58,-58.00002 0,-32.03251 25.96748,-58 58,-58 32.03252,0 58,25.96749 58,58 z"
       transform="matrix(1.0153257,0,0,1.0153257,-123.17462,-349.33015)"
       inkscape:export-filename="/home/mako/images/10/testicatLogo.png"
       inkscape:export-xdpi="327.05661"
       inkscape:export-ydpi="327.05661" />
    <path
       transform="matrix(0.97605149,0,0,0.75024853,72.66741,-107.20024)"
       d="m 432.44444,1003.4733 c 0,10.3093 -8.35735,18.6667 -18.66667,18.6667 -10.30931,0 -18.66667,-8.3574 -18.66667,-18.6667 0,-10.30929 8.35736,-18.66664 18.66667,-18.66664 10.30932,0 18.66667,8.35735 18.66667,18.66664 z"
       sodipodi:ry="18.666666"
       sodipodi:rx="18.666666"
       sodipodi:cy="1003.4733"
       sodipodi:cx="413.77777"
       id="path4235-5"
       style="color:#000000;fill:#878787;fill-opacity:1;fill-rule:evenodd;stroke:none;stroke-width:1;marker:none;visibility:visible;display:inline;overflow:visible;enable-background:accumulate"
       sodipodi:type="arc" />
    <path
       sodipodi:nodetypes="cssssssssccsccccccssccccsccssscssscc"
       inkscape:connector-curvature="0"
       id="path4197-4"
       d="m 502.03472,613.86365 c 6.77148,2.0715 12.93987,-0.999 16.11076,-6.5645 3.77442,-6.6248 2.70613,-13.71 -3.86878,-18.4211 -5.14612,-3.6873 -11.77868,-2.3468 -16.58911,3.8375 -1.30528,1.6781 -1.04889,3.171 0.10172,4.2235 0.88004,0.805 2.56236,0.3128 3.51366,-0.8367 3.78549,-4.5742 6.40356,-5.0656 9.96768,-3.0811 4.47072,2.4893 5.96892,7.0426 2.87082,11.9518 -2.02546,3.2096 -6.32832,5.472 -11.69428,3.4013 -2.16297,-0.8347 -4.44673,0.6181 -5.67975,2.9414 l -2.70749,4.1811 c 0,0 -1.85039,-13.1197 -4.34568,-24.8066 -1.47054,-6.8873 -6.33212,-11.9138 -6.91358,-18.0741 l -0.88889,-10.6996 -12.04938,5.5638 -7.40741,-0.099 -13.33333,-0.6913 2.99588,5.9259 c -2.19479,3.9945 -2.80508,9.3495 -1.02057,14.3758 1.32659,3.7366 4.82801,6.3185 9.1291,6.9277 5.06006,0.7167 12.47456,-1.281 15.85855,-6.4888 l 0,10e-5 c -3.24829,5.9039 -10.52401,8.6365 -16.88889,7.4074 0,10.2716 -3.72016,19.3416 -3.52263,26.8477 -3.27755,0.4097 -2.87839,3.3349 -0.88888,4.1482 2.36394,0.9663 6.10029,0.2304 6.10029,0.2304 0.86692,1.2992 2.05454,2.351 2.95808,3.2849 -1.26811,0.7023 -1.43908,2.5048 -0.20241,3.2702 2.33004,1.4421 8.0284,0.6879 8.64746,0 0.47309,-0.5256 0.67097,-2.208 0.47188,-4.8504 -0.5686,-7.5469 3.54458,-13.6772 11.6214,-14.1162 -8.16461,2.3704 -11.69341,8.1679 -10.07408,16.5926 0.27598,1.4358 0.83778,2.145 1.74506,2.411 1.28752,0.3776 2.63309,0.292 3.88457,-0.041 4.70046,-1.2492 8.92729,-2.6799 13.00412,-4.8724 z"
       style="color:#000000;fill:#878787;fill-opacity:1;fill-rule:evenodd;stroke:none;stroke-width:1;marker:none;visibility:visible;display:inline;overflow:visible;enable-background:accumulate" />
    <path
       transform="matrix(1.04,0,0,1.04,13.19915,-365.40028)"
       d="m 427.28121,914.88068 c 0,1.21214 -0.98264,2.19478 -2.19478,2.19478 -1.21215,0 -2.19479,-0.98264 -2.19479,-2.19478 0,-1.21215 0.98264,-2.19479 2.19479,-2.19479 1.21214,0 2.19478,0.98264 2.19478,2.19479 z"
       sodipodi:ry="2.1947873"
       sodipodi:rx="2.1947873"
       sodipodi:cy="914.88068"
       sodipodi:cx="425.08643"
       id="path4199-2"
       style="color:#000000;fill:#ffffff;fill-opacity:1;fill-rule:evenodd;stroke:none;stroke-width:1;marker:none;visibility:visible;display:inline;overflow:visible;enable-background:accumulate"
       sodipodi:type="arc" />
    <path
       transform="matrix(0.93752131,0,0,0.72063205,88.61035,-80.153244)"
       d="m 432.44444,1003.4733 c 0,10.3093 -8.35735,18.6667 -18.66667,18.6667 -10.30931,0 -18.66667,-8.3574 -18.66667,-18.6667 0,-10.30929 8.35736,-18.66664 18.66667,-18.66664 10.30932,0 18.66667,8.35735 18.66667,18.66664 z"
       sodipodi:ry="18.666666"
       sodipodi:rx="18.666666"
       sodipodi:cy="1003.4733"
       sodipodi:cx="413.77777"
       id="path4226-9"
       style="color:#000000;fill:#ffffff;fill-opacity:1;fill-rule:evenodd;stroke:none;stroke-width:1;marker:none;visibility:visible;display:inline;overflow:visible;enable-background:accumulate"
       sodipodi:type="arc" />
    <path
       sodipodi:type="arc"
       style="color:#000000;fill:#ffffff;fill-opacity:1;fill-rule:evenodd;stroke:none;stroke-width:1;marker:none;visibility:visible;display:inline;overflow:visible;enable-background:accumulate"
       id="path4237-6"
       sodipodi:cx="413.77777"
       sodipodi:cy="1003.4733"
       sodipodi:rx="18.666666"
       sodipodi:ry="18.666666"
       d="m 432.44444,1003.4733 c 0,10.3093 -8.35735,18.6667 -18.66667,18.6667 -10.30931,0 -18.66667,-8.3574 -18.66667,-18.6667 0,-10.30929 8.35736,-18.66664 18.66667,-18.66664 10.30932,0 18.66667,8.35735 18.66667,18.66664 z"
       transform="matrix(0.97605149,0,0,0.75024853,72.66741,-108.9257)" />
    <path
       style="color:#000000;fill:none;stroke:#ffffff;stroke-width:2.4000001;stroke-linejoin:round;stroke-miterlimit:4;stroke-opacity:1;stroke-dasharray:none;marker:none;visibility:visible;display:inline;overflow:visible;enable-background:accumulate"
       d="m 458.58446,591.10005 c 0,0 3.70196,-0.4539 3.78118,-3.7811 0.55454,3.5649 3.78115,3.7811 3.78115,3.7811"
       id="rect4230-2"
       inkscape:connector-curvature="0"
       sodipodi:nodetypes="ccc" />
    <path
       sodipodi:type="arc"
       style="color:#000000;fill:#5cb5cf;fill-opacity:1;fill-rule:evenodd;stroke:none;stroke-width:1;marker:none;visibility:visible;display:inline;overflow:visible;enable-background:accumulate"
       id="path4185-1"
       sodipodi:cx="413.77777"
       sodipodi:cy="1003.4733"
       sodipodi:rx="18.666666"
       sodipodi:ry="18.666666"
       d="m 432.44444,1003.4733 c 0,10.3093 -8.35735,18.6667 -18.66667,18.6667 -10.30931,0 -18.66667,-8.3574 -18.66667,-18.6667 0,-10.30929 8.35736,-18.66664 18.66667,-18.66664 10.30932,0 18.66667,8.35735 18.66667,18.66664 z"
       transform="matrix(0.77231865,0,0,0.59364791,156.96753,45.691666)" />
    <path
       sodipodi:type="arc"
       style="color:#000000;fill:#ffffff;fill-opacity:1;fill-rule:evenodd;stroke:none;stroke-width:1;marker:none;visibility:visible;display:inline;overflow:visible;enable-background:accumulate"
       id="path4269-1"
       sodipodi:cx="425.08643"
       sodipodi:cy="914.88068"
       sodipodi:rx="2.1947873"
       sodipodi:ry="2.1947873"
       d="m 427.28121,914.88068 c 0,1.21214 -0.98264,2.19478 -2.19478,2.19478 -1.21215,0 -2.19479,-0.98264 -2.19479,-2.19478 0,-1.21215 0.98264,-2.19479 2.19479,-2.19479 1.21214,0 2.19478,0.98264 2.19478,2.19479 z"
       transform="matrix(1.04,0,0,1.04,27.42137,-365.40028)" />
    <rect
       style="color:#000000;fill:#878787;fill-opacity:1;fill-rule:evenodd;stroke:none;stroke-width:1.29999995;marker:none;visibility:visible;display:inline;overflow:visible;enable-background:accumulate"
       id="rect4233-9"
       width="23.83539"
       height="4.7407408"
       x="451.4426"
       y="580.08936" />
    <path
       sodipodi:type="arc"
       style="color:#000000;fill:#878787;fill-opacity:1;fill-rule:evenodd;stroke:none;stroke-width:1;marker:none;visibility:visible;display:inline;overflow:visible;enable-background:accumulate"
       id="path4586-3"
       sodipodi:cx="413.77777"
       sodipodi:cy="1003.4733"
       sodipodi:rx="18.666666"
       sodipodi:ry="18.666666"
       d="m 432.44444,1003.4733 c 0,10.3093 -8.35735,18.6667 -18.66667,18.6667 -10.30931,0 -18.66667,-8.3574 -18.66667,-18.6667 0,-10.30929 8.35736,-18.66664 18.66667,-18.66664 10.30932,0 18.66667,8.35735 18.66667,18.66664 z"
       transform="matrix(0.97605149,0,0,0.75024853,30.74903,-123.88813)" />
    <path
       transform="matrix(0.97605149,0,0,0.75024853,30.74903,-125.61359)"
       d="m 432.44444,1003.4733 c 0,10.3093 -8.35735,18.6667 -18.66667,18.6667 -10.30931,0 -18.66667,-8.3574 -18.66667,-18.6667 0,-10.30929 8.35736,-18.66664 18.66667,-18.66664 10.30932,0 18.66667,8.35735 18.66667,18.66664 z"
       sodipodi:ry="18.666666"
       sodipodi:rx="18.666666"
       sodipodi:cy="1003.4733"
       sodipodi:cx="413.77777"
       id="path4588-0"
       style="color:#000000;fill:#ffffff;fill-opacity:1;fill-rule:evenodd;stroke:none;stroke-width:1;marker:none;visibility:visible;display:inline;overflow:visible;enable-background:accumulate"
       sodipodi:type="arc" />
    <path
       transform="matrix(0.77231865,0,0,0.59364791,115.04915,29.003776)"
       d="m 432.44444,1003.4733 c 0,10.3093 -8.35735,18.6667 -18.66667,18.6667 -10.30931,0 -18.66667,-8.3574 -18.66667,-18.6667 0,-10.30929 8.35736,-18.66664 18.66667,-18.66664 10.30932,0 18.66667,8.35735 18.66667,18.66664 z"
       sodipodi:ry="18.666666"
       sodipodi:rx="18.666666"
       sodipodi:cy="1003.4733"
       sodipodi:cx="413.77777"
       id="path4590-3"
       style="color:#000000;fill:#e6af59;fill-opacity:1;fill-rule:evenodd;stroke:none;stroke-width:1;marker:none;visibility:visible;display:inline;overflow:visible;enable-background:accumulate"
       sodipodi:type="arc" />
  </g>
</svg>
