<?xml version="1.0" encoding="UTF-8" standalone="no"?>
<!-- Created with Inkscape (http://www.inkscape.org/) -->
<!-- Author: mako yass -->

<svg
   xmlns:dc="http://purl.org/dc/elements/1.1/"
   xmlns:cc="http://creativecommons.org/ns#"
   xmlns:rdf="http://www.w3.org/1999/02/22-rdf-syntax-ns#"
   xmlns:svg="http://www.w3.org/2000/svg"
   xmlns="http://www.w3.org/2000/svg"
   xmlns:sodipodi="http://sodipodi.sourceforge.net/DTD/sodipodi-0.dtd"
   xmlns:inkscape="http://www.inkscape.org/namespaces/inkscape"
   width="84.086426"
   height="84.086426"
   id="svg4792"
   version="1.1"
   inkscape:version="0.48.3.1 r9886"
   sodipodi:docname="New document 16">
  <defs
     id="defs4794" />
  <sodipodi:namedview
     id="base"
     pagecolor="#ffffff"
     bordercolor="#666666"
     borderopacity="1.0"
     inkscape:pageopacity="0.0"
     inkscape:pageshadow="2"
     inkscape:zoom="1.18125"
     inkscape:cx="84.505978"
     inkscape:cy="4.2943388"
     inkscape:document-units="px"
     inkscape:current-layer="layer1"
     showgrid="false"
     fit-margin-top="0"
     fit-margin-left="0"
     fit-margin-right="0"
     fit-margin-bottom="0"
     inkscape:window-width="726"
     inkscape:window-height="335"
     inkscape:window-x="402"
     inkscape:window-y="14"
     inkscape:window-maximized="0" />
  <metadata
     id="metadata4797">
    <rdf:RDF>
      <cc:Work
         rdf:about="">
        <dc:format>image/svg+xml</dc:format>
        <dc:type
           rdf:resource="http://purl.org/dc/dcmitype/StillImage" />
        <dc:title></dc:title>
      </cc:Work>
    </rdf:RDF>
  </metadata>
  <g
     inkscape:label="Layer 1"
     inkscape:groupmode="layer"
     id="layer1"
     transform="translate(-292.2425,-498.8904)">
    <path
       sodipodi:type="arc"
       style="color:#000000;fill:#ffffff;fill-opacity:1;fill-rule:evenodd;stroke:none;stroke-width:1.70000005;marker:none;visibility:visible;display:inline;overflow:visible;enable-background:accumulate"
       id="path4302"
       sodipodi:cx="580"
       sodipodi:cy="944.36218"
       sodipodi:rx="58"
       sodipodi:ry="58"
       d="m 638,944.36218 c 0,32.03252 -25.96748,58.00002 -58,58.00002 -32.03252,0 -58,-25.9675 -58,-58.00002 0,-32.03251 25.96748,-58 58,-58 32.03252,0 58,25.96749 58,58 z"
       transform="matrix(0.72488296,0,0,0.72488296,-86.146403,-143.61844)"
       inkscape:export-filename="/home/mako/images/10/testicatLogo.png"
       inkscape:export-xdpi="327.05661"
       inkscape:export-ydpi="327.05661" />
    <path
       style="color:#000000;fill:#484848;fill-opacity:1;fill-rule:evenodd;stroke:none;stroke-width:1;marker:none;visibility:visible;display:inline;overflow:visible;enable-background:accumulate"
       d="m 354.13711,504.50497 -9.36242,7.17392 -11.64213,0 -10.39569,-7.01823 1.93635,11.22311 c -1.27989,3.59651 -1.24336,8.67451 -0.005,12.46567 1.49363,4.57265 5.72411,6.72034 10.12786,7.24334 5.64299,0.67018 13.34647,-1.385 16.52523,-5.90265 1.8312,-2.60239 2.5762,-5.96414 2.351,-10.6281 2.6495,8.70545 9.2756,5.95925 10.9159,14.26464 1.6887,8.55027 3.4201,13.57742 4.6839,24.03962 0.3205,2.65328 0.5323,4.11261 2.033,0.59169 0,0 -0.1709,-1.20436 -0.2653,-1.80518 -1.3126,-8.35667 -1.9923,-11.31575 -4.6818,-23.91223 -1.585,-7.42341 -10.7913,-7.84721 -11.418,-14.48694 z m -20.68624,32.55211 c 0,11.07106 -4.019,18.55228 -3.80609,26.64267 -3.53265,0.44158 -3.08747,3.6032 -0.94311,4.47974 2.54793,1.04151 1.71065,0.12227 1.71065,0.12227 -4.03731,-1.97661 -1.73585,-3.81285 0.82952,-3.43435 0.12722,-11.54538 3.51208,-14.09814 2.20903,-27.81033 z"
       id="path4277-6"
       inkscape:connector-curvature="0"
       sodipodi:nodetypes="cccccssscsscssccccsccc" />
    <path
       sodipodi:type="arc"
       style="color:#000000;fill:#ffffff;fill-opacity:1;fill-rule:evenodd;stroke:none;stroke-width:1;marker:none;visibility:visible;display:inline;overflow:visible;enable-background:accumulate"
       id="path4279-9"
       sodipodi:cx="425.08643"
       sodipodi:cy="914.88068"
       sodipodi:rx="2.1947873"
       sodipodi:ry="2.1947873"
       d="m 427.28121,914.88068 c 0,1.21214 -0.98264,2.19478 -2.19478,2.19478 -1.21215,0 -2.19479,-0.98264 -2.19479,-2.19478 0,-1.21215 0.98264,-2.19479 2.19479,-2.19479 1.21214,0 2.19478,0.98264 2.19478,2.19479 z"
       transform="matrix(1.1209457,0,0,1.1209457,-147.25247,-498.28104)" />
    <path
       sodipodi:nodetypes="ccc"
       inkscape:connector-curvature="0"
       id="path4283-7"
       d="m 332.79825,532.666 c 0,0 3.99009,-0.48923 4.07548,-4.07545 0.5977,3.84237 4.07545,4.07546 4.07545,4.07546"
       style="color:#000000;fill:none;stroke:#ffffff;stroke-width:2.40000033;stroke-linejoin:round;stroke-miterlimit:4;stroke-opacity:1;stroke-dasharray:none;marker:none;visibility:visible;display:inline;overflow:visible;enable-background:accumulate" />
    <path
       transform="matrix(0.79010201,0,0,0.60731721,25.220137,-52.890293)"
       d="m 432.44444,1003.4733 c 0,10.3093 -8.35735,18.6667 -18.66667,18.6667 -10.30931,0 -18.66667,-8.3574 -18.66667,-18.6667 0,-10.30929 8.35736,-18.66664 18.66667,-18.66664 10.30932,0 18.66667,8.35735 18.66667,18.66664 z"
       sodipodi:ry="18.666666"
       sodipodi:rx="18.666666"
       sodipodi:cy="1003.4733"
       sodipodi:cx="413.77777"
       id="path4285-0"
       style="color:#000000;fill:#55b4d1;fill-opacity:1;fill-rule:evenodd;stroke:none;stroke-width:1;marker:none;visibility:visible;display:inline;overflow:visible;enable-background:accumulate"
       sodipodi:type="arc" />
    <path
       transform="matrix(1.1209457,0,0,1.1209457,-131.9233,-498.28104)"
       d="m 427.28121,914.88068 c 0,1.21214 -0.98264,2.19478 -2.19478,2.19478 -1.21215,0 -2.19479,-0.98264 -2.19479,-2.19478 0,-1.21215 0.98264,-2.19479 2.19479,-2.19479 1.21214,0 2.19478,0.98264 2.19478,2.19479 z"
       sodipodi:ry="2.1947873"
       sodipodi:rx="2.1947873"
       sodipodi:cy="914.88068"
       sodipodi:cx="425.08643"
       id="path4291-0"
       style="color:#000000;fill:#ffffff;fill-opacity:1;fill-rule:evenodd;stroke:none;stroke-width:1;marker:none;visibility:visible;display:inline;overflow:visible;enable-background:accumulate"
       sodipodi:type="arc" />
    <rect
       y="520.65955"
       x="325.10049"
       height="5.109724"
       width="25.690556"
       id="rect4293-6"
       style="color:#000000;fill:#484848;fill-opacity:1;fill-rule:evenodd;stroke:none;stroke-width:1.29999995;marker:none;visibility:visible;display:inline;overflow:visible;enable-background:accumulate" />
    <path
       sodipodi:type="arc"
       style="color:#000000;fill:#e5ab52;fill-opacity:1;fill-rule:evenodd;stroke:none;stroke-width:1;marker:none;visibility:visible;display:inline;overflow:visible;enable-background:accumulate"
       id="path4361"
       sodipodi:cx="413.77777"
       sodipodi:cy="1003.4733"
       sodipodi:rx="18.666666"
       sodipodi:ry="18.666666"
       d="m 432.44444,1003.4733 c 0,10.3093 -8.35735,18.6667 -18.66667,18.6667 -10.30931,0 -18.66667,-8.3574 -18.66667,-18.6667 0,-10.30929 8.35736,-18.66664 18.66667,-18.66664 10.30932,0 18.66667,8.35735 18.66667,18.66664 z"
       transform="matrix(0.79010201,0,0,0.60731721,-13.890973,-56.248313)" />
  </g>
</svg>
